<?xml version="1.0" encoding="UTF-8"?>
<svg version="1.2" baseProfile="tiny-ps"
     xmlns="http://www.w3.org/2000/svg"
     width="512" height="512"
     viewBox="0 0 512 512">
  <!-- Hapus atribut yang tidak diizinkan: transform langsung di path, pastikan nilai numerik valid -->
  <path d="M0 0 C168.96 0 337.92 0 512 0 C512 168.96 512 337.92 512 512 C343.04 512 174.08 512 0 512 C0 343.04 0 174.08 0 0 Z" fill="#0F172A" />
  <path d="M267 200 C309.62 198.81 358.07 207.82 392 235 C392.59 235.43 393.18 235.85 393.79 236.29 C402.47 242.74 408.78 253.94 411.62 264.24 C412.18 268.27 412.18 272.25 412.19 276.31 C412.20 277.13 412.21 277.95 412.22 278.79 C412.25 287.39 410.26 294.24 406.38 301.88 C406.02 302.57 405.67 303.27 405.30 303.99 C389.38 334.41 349.65 353.83 318.39 364.20 C316.26 364.85 314.12 365.48 311.96 366.08 C308.94 366.96 308.94 366.96 305.91 368.37 C300.62 370.69 295.09 372.24 289.56 373.88 C288.38 374.23 287.19 374.58 285.97 374.94 C275.36 378.02 264.67 380.33 253.83 382.42 C250.79 383.04 247.77 383.74 244.74 384.45 C225.40 388.97 205.73 392.65 186 395 C184.97 395.12 183.94 395.25 182.88 395.38 C153.04 398.91 123.04 400.61 93 400 C92.07 399.99 91.13 399.97 90.17 399.96 C68.89 399.58 39.89 398.75 23 384 C20.30 379.95 20.23 376.75 21 372 C26.48 362.81 37.09 359.86 46.90 357.20 C54.94 355.19 63.16 354.09 71.35 352.89 C75.28 352.31 79.06 351.53 82.90 350.50 C86.46 349.65 90.07 349.13 93.68 348.55 C99.81 347.53 105.90 346.32 112 345.13 C113.26 344.88 114.51 344.64 115.81 344.39 C119.15 343.74 122.48 343.08 125.82 342.43 C128.12 341.98 130.42 341.53 132.73 341.09 C144.83 338.74 156.79 335.97 168.75 333 C170.50 332.57 172.25 332.14 174.00 331.71 C178.21 330.67 182.43 329.63 186.65 328.58 C188.88 328.03 191.12 327.48 193.36 326.94 C201.78 324.88 210.10 322.58 218.38 320 C219.46 319.67 220.54 319.34 221.66 319 C227.47 317.20 233.14 315.23 238.77 312.91 C241.91 311.63 245.11 310.51 248.31 309.38 C263.21 303.89 277.89 296.99 291 288 C291.64 287.56 292.29 287.12 292.95 286.66 C305.12 278.22 316.73 269.29 320 254 C321.31 244.17 318.63 236.32 312.88 228.38 C301.03 214.12 283.95 207.15 267 201 Z" fill="#2462E9" />
  <path d="M393.61 97.74 C397.46 97.75 401.31 97.74 405.15 97.73 C425.36 97.72 445.22 98.62 464.99 103.00 C466.00 103.20 467.00 103.41 468.03 103.62 C475.79 105.40 483.45 108.96 488.77 115.05 C490.54 117.90 490.45 119.70 489.99 123.00 C486.15 131.18 478.20 133.70 470.17 136.63 C464.42 138.43 458.83 139.64 452.86 140.48 C452.00 140.61 451.14 140.73 450.25 140.86 C442.06 142.03 433.86 143.02 425.65 143.99 C406.17 146.30 386.78 149.00 367.42 152.19 C366.40 152.36 365.37 152.53 364.31 152.70 C348.42 155.32 332.67 158.29 316.99 162.00 C315.41 162.36 313.83 162.72 312.25 163.09 C295.38 166.99 278.82 171.65 262.37 177.06 C261.40 177.38 260.43 177.70 259.43 178.03 C252.73 180.27 246.37 182.97 239.99 186.00 C239.27 186.34 238.55 186.67 237.81 187.02 C221.13 194.94 202.01 205.10 194.11 222.77 C191.50 230.75 192.19 239.09 195.67 246.65 C205.82 264.95 225.78 274.85 244.99 281.02 C244.99 281.35 244.99 281.68 244.99 282.02 C233.13 282.25 221.73 281.86 210.00 280.02 C209.10 279.89 208.20 279.75 207.28 279.61 C178.62 275.31 148.21 268.49 125.00 250.02 C124.14 249.34 123.29 248.67 122.41 247.97 C113.23 240.21 105.08 229.37 103.79 217.04 C103.23 208.36 103.52 200.10 107.00 192.02 C107.38 191.08 107.76 190.14 108.15 189.17 C118.66 165.64 144.62 151.37 166.75 140.64 C167.78 140.14 168.81 139.64 169.87 139.13 C175.88 136.28 181.87 133.97 188.20 131.96 C191.54 130.83 194.68 129.42 197.88 127.94 C201.46 126.37 205.15 125.22 208.88 124.07 C210.12 123.69 210.12 123.69 211.39 123.30 C269.93 105.40 332.54 97.55 393.61 97.74 Z" fill="#FDFDFD" />
</svg>
